P3
80 80
255
0 0 0 0 0 0 0 0 0 0 0 0 0 0 0 0 0 0 0 0 0 0 0 0 
0 0 0 0 0 0 0 0 0 0 0 0 0 0 0 0 0 0 0 0 0 0 0 0 
0 0 0 0 0 0 0 0 0 0 0 0 0 0 0 0 0 0 0 0 0 0 0 0 
0 0 0 0 0 0 0 0 0 0 0 0 0 0 0 0 0 0 0 0 0 0 0 0 
0 0 0 0 0 0 0 0 0 0 0 0 0 0 0 0 0 0 0 0 0 0 0 0 
0 0 0 0 0 0 0 0 0 0 0 0 0 0 0 0 0 0 0 0 0 0 0 0 
0 0 0 0 0 0 0 0 0 0 0 0 0 0 0 0 0 0 0 0 0 0 0 0 
0 0 0 0 0 0 0 0 0 0 0 0 0 0 0 0 0 0 0 0 0 0 0 0 
0 0 0 0 0 0 0 0 0 0 0 0 0 0 0 0 0 0 0 0 0 0 0 0 
0 0 0 0 0 0 0 0 0 0 0 0 0 0 0 0 0 0 0 0 0 0 0 0 

0 0 0 0 0 0 0 0 0 0 0 0 0 0 0 0 0 0 0 0 0 0 0 0 
0 0 0 0 0 0 0 0 0 0 0 0 0 0 0 0 0 0 0 0 0 0 0 0 
0 0 0 0 0 0 0 0 0 0 0 0 0 0 0 0 0 0 0 0 0 0 0 0 
0 0 0 0 0 0 0 0 0 0 0 0 0 0 0 0 0 0 0 0 0 0 0 0 
0 0 0 0 0 0 0 0 0 0 0 0 0 0 0 0 0 0 0 0 0 0 0 0 
0 0 0 0 0 0 0 0 0 0 0 0 0 0 0 0 0 0 0 0 0 0 0 0 
0 0 0 0 0 0 0 0 0 0 0 0 0 0 0 0 0 0 0 0 0 0 0 0 
0 0 0 0 0 0 0 0 0 0 0 0 0 0 0 0 0 0 0 0 0 0 0 0 
0 0 0 0 0 0 0 0 0 0 0 0 0 0 0 0 0 0 0 0 0 0 0 0 
0 0 0 0 0 0 0 0 0 0 0 0 0 0 0 0 0 0 0 0 0 0 0 0 

0 0 0 0 0 0 0 0 0 0 0 0 0 0 0 0 0 0 0 0 0 0 0 0 
0 0 0 0 0 0 0 0 0 0 0 0 0 0 0 0 0 0 0 0 0 0 0 0 
0 0 0 0 0 0 0 0 0 0 0 0 0 0 0 0 0 0 0 0 0 0 0 0 
0 0 0 0 0 0 0 0 0 0 0 0 0 0 0 0 0 0 0 0 0 0 0 0 
0 0 0 0 0 0 0 0 0 0 0 0 0 0 0 0 0 0 0 0 0 0 0 0 
0 0 0 0 0 0 0 0 0 0 0 0 0 0 0 0 0 0 0 0 0 0 0 0 
0 0 0 0 0 0 0 0 0 0 0 0 0 0 0 0 0 0 0 0 0 0 0 0 
0 0 0 0 0 0 0 0 0 0 0 0 0 0 0 0 0 0 0 0 0 0 0 0 
0 0 0 0 0 0 0 0 0 0 0 0 0 0 0 0 0 0 0 0 0 0 0 0 
0 0 0 0 0 0 0 0 0 0 0 0 0 0 0 0 0 0 0 0 0 0 0 0 

0 0 0 0 0 0 0 0 0 0 0 0 0 0 0 0 0 0 0 0 0 0 0 0 
0 0 0 0 0 0 0 0 0 0 0 0 0 0 0 0 0 0 0 0 0 0 0 0 
0 0 0 0 0 0 0 0 0 0 0 0 0 0 0 0 0 0 0 0 0 0 0 0 
0 0 0 0 0 0 0 0 0 0 0 0 0 0 0 0 0 0 0 0 0 0 0 0 
0 0 0 0 0 0 0 0 0 0 0 0 0 0 0 0 0 0 1 3 7 1 3 7 
1 3 7 1 3 7 0 0 1 0 0 0 0 0 0 0 0 0 0 0 0 0 0 0 
0 0 0 0 0 0 0 0 0 0 0 0 0 0 0 0 0 0 0 0 0 0 0 0 
0 0 0 0 0 0 0 0 0 0 0 0 0 0 0 0 0 0 0 0 0 0 0 0 
0 0 0 0 0 0 0 0 0 0 0 0 0 0 0 0 0 0 0 0 0 0 0 0 
0 0 0 0 0 0 0 0 0 0 0 0 0 0 0 0 0 0 0 0 0 0 0 0 

0 0 0 0 0 0 0 0 0 0 0 0 0 0 0 0 0 0 0 0 0 0 0 0 
0 0 0 0 0 0 0 0 0 0 0 0 0 0 0 0 0 0 0 0 0 0 0 0 
0 0 0 0 0 0 0 0 0 0 0 0 0 0 0 0 0 0 0 0 0 0 0 0 
0 0 0 0 0 0 0 0 0 0 0 0 0 0 0 0 0 0 0 0 0 0 0 0 
0 0 0 0 0 0 0 0 0 0 0 0 0 0 0 8 39 102 17 80 207 17 79 206 
17 79 206 17 79 206 13 63 164 0 0 0 0 0 0 0 0 0 0 0 0 0 0 0 
0 0 0 0 0 0 0 0 0 0 0 0 0 0 0 0 0 0 0 0 0 0 0 0 
0 0 0 0 0 0 0 0 0 0 0 0 0 0 0 0 0 0 0 0 0 0 0 0 
0 0 0 0 0 0 0 0 0 0 0 0 0 0 0 0 0 0 0 0 0 0 0 0 
0 0 0 0 0 0 0 0 0 0 0 0 0 0 0 0 0 0 0 0 0 0 0 0 

0 0 0 0 0 0 0 0 0 0 0 0 0 0 0 0 0 0 0 0 0 0 0 0 
0 0 0 0 0 0 0 0 0 0 0 0 0 0 0 0 0 0 0 0 0 0 0 0 
0 0 0 0 0 0 0 0 0 0 0 0 0 0 0 0 0 0 0 0 0 0 0 0 
0 0 0 0 0 0 0 0 0 0 0 0 0 0 0 0 0 0 0 0 0 0 0 0 
0 0 0 0 0 0 0 0 0 0 1 1 15 73 189 20 92 241 19 89 232 19 89 232 
19 89 232 19 89 232 19 91 236 16 75 195 2 8 22 0 0 0 0 0 0 0 0 0 
0 0 0 0 0 0 0 0 0 0 0 0 0 0 0 0 0 0 0 0 0 0 0 0 
0 0 0 0 0 0 0 0 0 0 0 0 0 0 0 0 0 0 0 0 0 0 0 0 
0 0 0 0 0 0 0 0 0 0 0 0 0 0 0 0 0 0 0 0 0 0 0 0 
0 0 0 0 0 0 0 0 0 0 0 0 0 0 0 0 0 0 0 0 0 0 0 0 

0 0 0 0 0 0 0 0 0 0 0 0 0 0 0 0 0 0 0 0 0 0 0 0 
0 0 0 0 0 0 0 0 0 0 0 0 0 0 0 0 0 0 0 0 0 0 0 0 
0 0 0 0 0 0 0 0 0 0 0 0 0 0 0 0 0 0 0 0 0 0 0 0 
0 0 0 0 0 0 0 0 0 0 0 0 0 0 0 0 0 0 0 0 0 0 0 0 
0 0 0 0 0 0 0 0 0 4 21 54 19 89 233 19 89 232 19 89 232 19 89 232 
19 89 232 19 89 232 19 89 232 19 89 233 12 56 145 0 0 0 0 0 0 0 0 0 
0 0 0 0 0 0 0 0 0 0 0 0 0 0 0 0 0 0 0 0 0 0 0 0 
0 0 0 0 0 0 0 0 0 0 0 0 0 0 0 0 0 0 0 0 0 0 0 0 
0 0 0 0 0 0 0 0 0 0 0 0 0 0 0 0 0 0 0 0 0 0 0 0 
0 0 0 0 0 0 0 0 0 0 0 0 0 0 0 0 0 0 0 0 0 0 0 0 

0 0 0 0 0 0 0 0 0 0 0 0 0 0 0 0 0 0 0 0 0 0 0 0 
0 0 0 0 0 0 0 0 0 0 0 0 0 0 0 0 0 0 0 0 0 0 0 0 
0 0 0 0 0 0 0 0 0 0 0 0 0 0 0 0 0 0 0 0 0 0 0 0 
0 0 0 0 0 0 0 0 0 0 0 0 0 0 0 0 0 0 0 0 0 0 0 0 
0 0 0 0 0 0 0 0 0 17 80 208 19 89 232 19 89 232 19 89 232 19 89 232 
19 89 232 19 89 232 19 89 232 19 89 232 20 96 251 3 12 30 0 0 0 0 0 0 
0 0 0 0 0 0 0 0 0 0 0 0 0 0 0 0 0 0 0 0 0 0 0 0 
0 0 0 0 0 0 0 0 0 0 0 0 0 0 0 0 0 0 0 0 0 0 0 0 
0 0 0 0 0 0 0 0 0 0 0 0 0 0 0 0 0 0 0 0 0 0 0 0 
0 0 0 0 0 0 0 0 0 0 0 0 0 0 0 0 0 0 0 0 0 0 0 0 

0 0 0 0 0 0 0 0 0 0 0 0 0 0 0 0 0 0 0 0 0 0 0 0 
0 0 0 0 0 0 0 0 0 0 0 0 0 0 0 0 0 0 0 0 0 0 0 0 
0 0 0 0 0 0 0 0 0 0 0 0 0 0 0 0 0 0 0 0 0 0 0 0 
0 0 0 0 0 0 0 0 0 0 0 0 0 0 0 0 0 0 0 0 0 0 0 0 
0 0 0 0 0 0 0 0 0 20 95 249 19 89 232 19 89 232 19 89 232 19 89 232 
19 89 232 19 89 232 19 89 232 19 89 232 20 92 240 7 31 80 0 0 0 0 0 0 
0 0 0 0 0 0 0 0 0 0 0 0 0 0 0 0 0 0 0 0 0 0 0 0 
0 0 0 0 0 0 0 0 0 0 0 0 0 0 0 0 0 0 0 0 0 0 0 0 
0 0 0 0 0 0 0 0 0 0 0 0 0 0 0 0 0 0 0 0 0 0 0 0 
0 0 0 0 0 0 0 0 0 0 0 0 0 0 0 0 0 0 0 0 0 0 0 0 

0 0 0 0 0 0 0 0 0 0 0 0 0 0 0 0 0 0 0 0 0 0 0 0 
0 0 0 0 0 0 0 0 0 0 0 0 0 0 0 0 0 0 0 0 0 0 0 0 
0 0 0 0 0 0 0 0 0 0 0 0 0 0 0 0 0 0 0 0 0 0 0 0 
0 0 0 0 0 0 0 0 0 0 0 0 0 0 0 0 0 0 0 0 0 0 0 0 
0 0 0 0 0 0 7 31 81 20 92 240 19 89 232 19 89 232 19 89 232 19 89 232 
19 89 232 19 89 232 19 89 232 19 89 232 19 89 233 13 62 161 0 0 0 0 0 0 
0 0 0 0 0 0 0 0 0 0 0 0 0 0 0 0 0 0 0 0 0 0 0 0 
0 0 0 0 0 0 0 0 0 0 0 0 0 0 0 0 0 0 0 0 0 0 0 0 
0 0 0 0 0 0 0 0 0 0 0 0 0 0 0 0 0 0 0 0 0 0 0 0 
0 0 0 0 0 0 0 0 0 0 0 0 0 0 0 0 0 0 0 0 0 0 0 0 

0 0 0 0 0 0 0 0 0 0 0 0 0 0 0 0 0 0 0 0 0 0 0 0 
0 0 0 0 0 0 0 0 0 0 0 0 0 0 0 0 0 0 0 0 0 0 0 0 
0 0 0 0 0 0 0 0 0 0 0 0 0 0 0 0 0 0 0 0 0 0 0 0 
0 0 0 0 0 0 0 0 0 0 0 0 0 0 0 0 0 0 0 0 0 0 0 0 
0 0 0 0 0 0 7 30 78 20 92 241 19 89 232 19 89 232 19 89 232 19 89 232 
19 89 232 19 89 232 19 89 232 19 89 232 19 89 232 14 66 172 0 0 0 0 0 0 
0 0 0 0 0 0 0 0 0 0 0 0 0 0 0 0 0 0 0 0 0 0 0 0 
0 0 0 0 0 0 0 0 0 0 0 0 0 0 0 0 0 0 0 0 0 0 0 0 
0 0 0 0 0 0 0 0 0 0 0 0 0 0 0 0 0 0 0 0 0 0 0 0 
0 0 0 0 0 0 0 0 0 0 0 0 0 0 0 0 0 0 0 0 0 0 0 0 

0 0 0 0 0 0 0 0 0 0 0 0 0 0 0 0 0 0 0 0 0 0 0 0 
0 0 0 0 0 0 0 0 0 0 0 0 0 0 0 0 0 0 0 0 0 0 0 0 
0 0 0 0 0 0 0 0 0 0 0 0 0 0 0 0 0 0 0 0 0 0 0 0 
0 0 0 0 0 0 0 0 0 0 0 0 0 0 0 0 0 0 0 0 0 0 0 0 
0 0 0 0 0 0 7 30 78 20 92 241 19 89 232 19 89 232 19 89 232 19 89 232 
19 89 232 19 89 232 19 89 232 19 89 232 19 89 232 14 66 172 0 0 0 0 0 0 
0 0 0 0 0 0 0 0 0 0 0 0 0 0 0 0 0 0 0 0 0 0 0 0 
0 0 0 0 0 0 0 0 0 0 0 0 0 0 0 0 0 0 0 0 0 0 0 0 
0 0 0 0 0 0 0 0 0 0 0 0 0 0 0 0 0 0 0 0 0 0 0 0 
0 0 0 0 0 0 0 0 0 0 0 0 0 0 0 0 0 0 0 0 0 0 0 0 

0 0 0 0 0 0 0 0 0 0 0 0 0 0 0 0 0 0 0 0 0 0 0 0 
0 0 0 0 0 0 0 0 0 0 0 0 0 0 0 0 0 0 0 0 0 0 0 0 
0 0 0 0 0 0 0 0 0 0 0 0 0 0 0 0 0 0 0 0 0 0 0 0 
0 0 0 0 0 0 0 0 0 0 0 0 0 0 0 0 0 0 0 0 0 0 0 0 
0 0 0 0 0 0 7 30 78 20 92 241 19 89 232 19 89 232 19 89 232 19 89 232 
19 89 232 19 89 232 19 89 232 19 89 232 19 89 232 14 66 172 0 0 0 0 0 0 
0 0 0 0 0 0 0 0 0 0 0 0 0 0 0 0 0 0 0 0 0 0 0 0 
0 0 0 0 0 0 0 0 0 0 0 0 0 0 0 0 0 0 0 0 0 0 0 0 
0 0 0 0 0 0 0 0 0 0 0 0 0 0 0 0 0 0 0 0 0 0 0 0 
0 0 0 0 0 0 0 0 0 0 0 0 0 0 0 0 0 0 0 0 0 0 0 0 

0 0 0 0 0 0 0 0 0 0 0 0 0 0 0 0 0 0 0 0 0 0 0 0 
0 0 0 0 0 0 0 0 0 0 0 0 0 0 0 0 0 0 0 0 0 0 0 0 
0 0 0 0 0 0 0 0 0 0 0 0 0 0 0 0 0 0 0 0 0 0 0 0 
1 3 7 1 2 6 0 0 0 0 0 0 0 0 0 0 0 0 0 0 0 0 0 0 
0 0 0 0 0 0 7 30 78 20 92 241 19 89 232 19 89 232 19 89 232 19 89 232 
19 89 232 19 89 232 19 89 232 19 89 232 19 89 232 14 66 172 0 0 0 0 0 0 
0 0 0 0 0 0 0 0 0 0 0 0 0 0 0 0 0 0 0 2 5 1 3 7 
0 0 0 0 0 0 0 0 0 0 0 0 0 0 0 0 0 0 0 0 0 0 0 0 
0 0 0 0 0 0 0 0 0 0 0 0 0 0 0 0 0 0 0 0 0 0 0 0 
0 0 0 0 0 0 0 0 0 0 0 0 0 0 0 0 0 0 0 0 0 0 0 0 

0 0 0 0 0 0 0 0 0 0 0 0 0 0 0 0 0 0 0 0 0 0 0 0 
0 0 0 0 0 0 0 0 0 0 0 0 0 0 0 0 0 0 0 0 0 0 0 0 
0 0 0 0 0 0 0 0 0 0 0 0 0 0 0 0 0 0 6 30 77 14 68 176 
17 79 207 17 78 202 14 68 177 2 9 24 0 0 0 0 0 0 0 0 0 0 0 0 
0 0 0 0 0 0 7 30 78 20 92 241 19 89 232 19 89 232 19 89 232 19 89 232 
19 89 232 19 89 232 19 89 232 19 89 232 19 89 232 14 66 172 0 0 0 0 0 0 
0 0 0 0 0 0 0 0 0 0 0 1 0 1 2 11 51 132 16 76 199 17 79 207 
14 67 174 11 50 131 0 0 0 0 0 0 0 0 0 0 0 0 0 0 0 0 0 0 
0 0 0 0 0 0 0 0 0 0 0 0 0 0 0 0 0 0 0 0 0 0 0 0 
0 0 0 0 0 0 0 0 0 0 0 0 0 0 0 0 0 0 0 0 0 0 0 0 

0 0 0 0 0 0 0 0 0 0 0 0 0 0 0 0 0 0 0 0 0 0 0 0 
0 0 0 0 0 0 0 0 0 0 0 0 0 0 0 0 0 0 0 0 0 0 0 0 
0 0 0 0 0 0 0 0 0 0 0 0 1 5 14 15 73 190 20 93 243 19 89 232 
19 89 232 19 89 232 19 89 232 21 98 254 8 36 94 0 0 0 0 0 0 0 0 0 
0 0 0 0 0 0 7 30 78 20 92 241 19 89 232 19 89 232 19 89 232 19 89 232 
19 89 232 19 89 232 19 89 232 19 89 232 19 89 232 14 66 172 0 0 0 0 0 0 
0 0 0 0 0 0 0 0 0 3 13 34 19 90 234 19 90 236 19 89 232 19 89 232 
19 89 232 19 90 236 20 92 241 4 17 45 0 0 0 0 0 0 0 0 0 0 0 0 
0 0 0 0 0 0 0 0 0 0 0 0 0 0 0 0 0 0 0 0 0 0 0 0 
0 0 0 0 0 0 0 0 0 0 0 0 0 0 0 0 0 0 0 0 0 0 0 0 

0 0 0 0 0 0 0 0 0 0 0 0 0 0 0 0 0 0 0 0 0 0 0 0 
0 0 0 0 0 0 0 0 0 0 0 0 0 0 0 0 0 0 0 0 0 0 0 0 
0 0 0 0 0 0 0 0 0 6 26 66 19 89 232 19 89 232 19 89 232 19 89 232 
19 89 232 19 89 232 19 89 232 19 89 232 19 88 229 3 14 36 0 0 0 0 0 0 
0 0 0 0 0 0 7 30 78 20 92 241 19 89 232 19 89 232 19 89 232 19 89 232 
19 89 232 19 89 232 19 89 232 19 89 232 19 89 232 14 66 172 0 0 0 0 0 0 
0 0 0 0 0 0 2 9 23 18 85 221 19 89 232 19 89 232 19 89 232 19 89 232 
19 89 232 19 89 232 19 89 232 19 89 232 9 43 112 0 0 0 0 0 0 0 0 0 
0 0 0 0 0 0 0 0 0 0 0 0 0 0 0 0 0 0 0 0 0 0 0 0 
0 0 0 0 0 0 0 0 0 0 0 0 0 0 0 0 0 0 0 0 0 0 0 0 

0 0 0 0 0 0 0 0 0 0 0 0 0 0 0 0 0 0 0 0 0 0 0 0 
0 0 0 0 0 0 0 0 0 0 0 0 0 0 0 0 0 0 0 0 0 0 0 0 
0 0 0 0 0 0 8 37 95 19 91 237 19 89 231 19 89 232 19 89 232 19 89 232 
19 89 232 19 89 232 19 89 232 19 89 232 19 89 232 17 80 209 0 0 0 0 0 0 
0 0 0 0 0 0 7 30 78 20 92 241 19 89 232 19 89 232 19 89 232 19 89 232 
19 89 232 19 89 232 19 89 232 19 89 232 19 89 232 14 66 172 0 0 0 0 0 0 
0 0 0 0 0 0 9 41 106 19 89 233 19 89 232 19 89 232 19 89 232 19 89 232 
19 89 232 19 89 232 19 89 232 19 89 232 20 93 242 13 61 160 0 0 0 0 0 0 
0 0 0 0 0 0 0 0 0 0 0 0 0 0 0 0 0 0 0 0 0 0 0 0 
0 0 0 0 0 0 0 0 0 0 0 0 0 0 0 0 0 0 0 0 0 0 0 0 

0 0 0 0 0 0 0 0 0 0 0 0 0 0 0 0 0 0 0 0 0 0 0 0 
0 0 0 0 0 0 0 0 0 0 0 0 0 0 0 0 0 0 0 0 0 0 0 0 
0 0 0 8 37 95 19 91 236 19 89 232 19 89 232 19 89 232 19 89 232 19 89 232 
19 89 232 19 89 232 19 89 232 19 89 232 19 89 232 20 94 244 3 13 35 0 0 0 
0 0 0 0 0 0 7 30 78 20 92 241 19 89 232 19 89 232 19 89 232 19 89 232 
19 89 232 19 89 232 19 89 232 19 89 232 19 89 232 14 66 172 0 0 0 0 0 0 
0 0 0 0 0 0 17 79 207 19 89 232 19 89 232 19 89 232 19 89 232 19 89 232 
19 89 232 19 89 232 19 89 232 19 89 232 19 89 232 19 89 232 13 61 160 0 0 0 
0 0 0 0 0 0 0 0 0 0 0 0 0 0 0 0 0 0 0 0 0 0 0 0 
0 0 0 0 0 0 0 0 0 0 0 0 0 0 0 0 0 0 0 0 0 0 0 0 

0 0 0 0 0 0 0 0 0 0 0 0 0 0 0 0 0 0 0 0 0 0 0 0 
0 0 0 0 0 0 0 0 0 0 0 0 0 0 0 0 0 0 0 0 0 0 0 0 
9 43 112 19 90 234 19 89 232 19 89 232 19 89 232 19 89 232 19 89 232 19 89 232 
19 89 232 19 89 232 19 89 232 19 89 232 19 89 232 20 92 240 7 32 83 0 0 0 
0 0 0 0 0 0 7 30 78 20 92 241 19 89 232 19 89 232 19 89 232 19 89 232 
19 89 232 19 89 232 19 89 232 19 89 232 19 89 232 14 66 172 0 0 0 0 0 0 
0 0 0 0 0 0 21 97 254 19 89 232 19 89 232 19 89 232 19 89 232 19 89 232 
19 89 232 19 89 232 19 89 232 19 89 232 19 89 232 19 89 232 19 91 238 15 68 177 
0 0 0 0 0 0 0 0 0 0 0 0 0 0 0 0 0 0 0 0 0 0 0 0 
0 0 0 0 0 0 0 0 0 0 0 0 0 0 0 0 0 0 0 0 0 0 0 0 

0 0 0 0 0 0 0 0 0 0 0 0 0 0 0 0 0 0 0 0 0 0 0 0 
0 0 0 0 0 0 0 0 0 0 0 0 0 0 0 0 0 0 0 0 0 7 33 86 
19 90 235 19 89 232 19 89 232 19 89 232 19 89 232 19 89 232 19 89 232 19 89 232 
19 89 232 19 89 232 19 89 232 19 89 232 19 89 232 20 95 248 1 5 14 0 0 0 
0 0 0 0 0 0 7 30 78 20 92 241 19 89 232 19 89 232 19 89 232 19 89 232 
19 89 232 19 89 232 19 89 232 19 89 232 19 89 232 14 66 172 0 0 0 0 0 0 
0 0 0 0 0 0 15 72 188 19 89 232 19 89 232 19 89 232 19 89 232 19 89 232 
19 89 232 19 89 232 19 89 232 19 89 232 19 89 232 19 89 232 19 89 232 19 90 233 
12 57 150 0 0 0 0 0 0 0 0 0 0 0 0 0 0 0 0 0 0 0 0 0 
0 0 0 0 0 0 0 0 0 0 0 0 0 0 0 0 0 0 0 0 0 0 0 0 

0 0 0 0 0 0 0 0 0 0 0 0 0 0 0 0 0 0 0 0 0 0 0 0 
0 0 0 0 0 0 0 0 0 0 0 0 0 0 0 0 0 0 9 43 113 19 90 235 
19 89 232 19 89 232 19 89 232 19 89 232 19 89 232 19 89 232 19 89 232 19 89 232 
19 89 232 19 89 232 19 89 232 19 89 232 19 89 232 17 80 209 0 0 0 0 0 0 
0 0 0 0 0 0 7 30 78 20 92 241 19 89 232 19 89 232 19 89 232 19 89 232 
19 89 232 19 89 232 19 89 232 19 89 232 19 89 232 14 66 172 0 0 0 0 0 0 
0 0 0 0 0 0 9 43 113 19 89 233 19 89 232 19 89 232 19 89 232 19 89 232 
19 89 232 19 89 232 19 89 232 19 89 232 19 89 232 19 89 232 19 89 232 19 89 232 
19 90 233 15 68 178 0 1 2 0 0 0 0 0 0 0 0 0 0 0 0 0 0 0 
0 0 0 0 0 0 0 0 0 0 0 0 0 0 0 0 0 0 0 0 0 0 0 0 

0 0 0 0 0 0 0 0 0 0 0 0 0 0 0 0 0 0 0 0 0 0 0 0 
0 0 0 0 0 0 0 0 0 0 0 0 0 0 0 3 12 33 19 87 227 19 89 232 
19 89 232 19 89 232 19 89 232 19 89 232 19 89 232 19 89 232 19 89 232 19 89 232 
19 89 232 19 89 232 19 89 232 19 89 232 19 91 237 5 24 63 0 0 0 0 0 0 
0 0 0 0 0 0 7 30 78 20 92 241 19 89 232 19 89 232 19 89 232 19 89 232 
19 89 232 19 89 232 19 89 232 19 89 232 19 89 232 14 66 172 0 0 0 0 0 0 
0 0 0 0 0 0 2 9 23 19 90 236 19 89 231 19 89 232 19 89 232 19 89 232 
19 89 232 19 89 232 19 89 232 19 89 232 19 89 232 19 89 232 19 89 232 19 89 232 
19 89 232 19 88 230 8 37 95 0 0 0 0 0 0 0 0 0 0 0 0 0 0 0 
0 0 0 0 0 0 0 0 0 0 0 0 0 0 0 0 0 0 0 0 0 0 0 0 

0 0 0 0 0 0 0 0 0 0 0 0 0 0 0 0 0 0 0 0 0 0 0 0 
0 0 0 0 0 0 0 0 0 0 0 0 0 0 0 16 74 193 19 90 234 19 89 232 
19 89 232 19 89 232 19 89 232 19 89 232 19 89 232 19 89 232 19 89 232 19 89 232 
19 89 232 19 89 232 19 89 232 19 90 234 8 36 92 0 0 0 0 0 0 0 0 0 
0 0 0 0 0 0 7 30 78 20 92 241 19 89 232 19 89 232 19 89 232 19 89 232 
19 89 232 19 89 232 19 89 232 19 89 232 19 89 232 14 66 172 0 0 0 0 0 0 
0 0 0 0 0 0 0 0 0 3 14 37 19 90 234 19 89 233 19 89 232 19 89 232 
19 89 232 19 89 232 19 89 232 19 89 232 19 89 232 19 89 232 19 89 232 19 89 232 
19 89 232 19 89 232 20 92 241 2 10 27 0 0 0 0 0 0 0 0 0 0 0 0 
0 0 0 0 0 0 0 0 0 0 0 0 0 0 0 0 0 0 0 0 0 0 0 0 

0 0 0 0 0 0 0 0 0 0 0 0 0 0 0 0 0 0 0 0 0 0 0 0 
0 0 0 0 0 0 0 0 0 0 0 0 11 49 128 19 90 234 19 89 232 19 89 232 
19 89 232 19 89 232 19 89 232 19 89 232 19 89 232 19 89 232 19 89 232 19 89 232 
19 89 232 19 90 234 17 80 208 5 20 53 0 0 0 0 0 0 0 0 0 0 0 0 
0 0 0 0 0 0 7 30 78 20 92 241 19 89 232 19 89 232 19 89 232 19 89 232 
19 89 232 19 89 232 19 89 232 19 89 232 19 89 232 14 66 172 0 0 0 0 0 0 
0 0 0 0 0 0 0 0 0 0 0 0 1 4 11 14 64 165 19 91 238 19 89 232 
19 89 232 19 89 232 19 89 232 19 89 232 19 89 232 19 89 232 19 89 232 19 89 232 
19 89 232 19 89 232 19 89 232 16 77 199 0 0 0 0 0 0 0 0 0 0 0 0 
0 0 0 0 0 0 0 0 0 0 0 0 0 0 0 0 0 0 0 0 0 0 0 0 

0 0 0 0 0 0 0 0 0 0 0 0 0 0 0 0 0 0 0 0 0 0 0 0 
0 0 0 0 0 0 0 0 0 3 12 32 21 96 251 19 89 232 19 89 232 19 89 232 
19 89 232 19 89 232 19 89 232 19 89 232 19 89 232 19 89 232 19 89 232 19 89 232 
20 92 240 14 66 173 0 0 0 0 0 0 0 0 0 0 0 0 0 0 0 0 0 0 
0 0 0 0 0 0 7 30 78 20 92 241 19 89 232 19 89 232 19 89 232 19 89 232 
19 89 232 19 89 232 19 89 232 19 89 232 19 89 232 14 66 172 0 0 0 0 0 0 
0 0 0 0 0 0 0 0 0 0 0 0 0 0 1 0 0 0 12 56 147 19 88 228 
19 89 232 19 89 232 19 89 232 19 89 232 19 89 232 19 89 232 19 89 232 19 89 232 
19 89 232 19 89 232 19 89 232 20 92 239 12 54 141 0 0 0 0 0 0 0 0 0 
0 0 0 0 0 0 0 0 0 0 0 0 0 0 0 0 0 0 0 0 0 0 0 0 

0 0 0 0 0 0 0 0 0 0 0 0 0 0 0 0 0 0 0 0 0 0 0 0 
0 0 0 0 0 0 1 3 7 18 84 218 19 89 232 19 89 232 19 89 232 19 89 232 
19 89 232 19 89 232 19 89 232 19 89 232 19 89 232 19 89 232 19 89 232 19 89 233 
10 46 120 0 0 0 0 0 0 0 0 0 0 0 0 0 0 0 0 0 0 0 0 0 
0 0 0 0 0 0 7 30 78 20 92 241 19 89 232 19 89 232 19 89 232 19 89 232 
19 89 232 19 89 232 19 89 232 19 89 232 19 89 232 14 66 172 0 0 0 0 0 0 
0 0 0 0 0 0 0 0 0 0 0 0 0 0 0 0 0 0 0 1 2 4 21 55 
19 89 232 19 89 232 19 89 232 19 89 232 19 89 232 19 89 232 19 89 232 19 89 232 
19 89 232 19 89 232 19 89 232 19 89 232 18 86 225 2 8 21 0 0 0 0 0 0 
0 0 0 0 0 0 0 0 0 0 0 0 0 0 0 0 0 0 0 0 0 0 0 0 

0 0 0 0 0 0 0 0 0 0 0 0 0 0 0 0 0 0 0 0 0 0 0 0 
0 0 0 0 0 0 6 27 71 19 89 231 19 89 232 19 89 232 19 89 232 19 89 232 
19 89 232 19 89 232 19 89 232 19 89 232 19 89 232 19 89 232 20 92 239 11 52 137 
0 0 0 0 0 0 0 0 0 0 0 0 0 0 0 0 0 0 0 0 0 0 0 0 
0 0 0 0 0 0 7 30 78 20 92 241 19 89 232 19 89 232 19 89 232 19 89 232 
19 89 232 19 89 232 19 89 232 19 89 232 19 89 232 14 66 172 0 0 0 0 0 0 
0 0 0 0 0 0 0 0 0 0 0 0 0 0 0 0 0 0 0 0 0 0 0 0 
6 28 72 19 88 229 19 89 232 19 89 232 19 89 232 19 89 232 19 89 232 19 89 232 
19 89 232 19 89 232 19 89 232 19 89 232 19 89 233 13 60 157 0 0 0 0 0 0 
0 0 0 0 0 0 0 0 0 0 0 0 0 0 0 0 0 0 0 0 0 0 0 0 

0 0 0 0 0 0 0 0 0 0 0 0 0 0 0 0 0 0 0 0 0 0 0 0 
0 0 0 0 0 0 17 80 208 19 89 232 19 89 232 19 89 232 19 89 232 19 89 232 
19 89 232 19 89 232 19 89 232 19 89 232 19 89 232 19 89 232 17 79 205 0 0 0 
0 0 0 0 0 0 0 0 0 0 0 0 0 0 0 0 0 0 0 0 0 0 0 0 
0 0 0 0 0 0 7 30 78 20 92 241 19 89 232 19 89 232 19 89 232 19 89 232 
19 89 232 19 89 232 19 89 232 19 89 232 19 89 232 14 66 172 0 0 0 0 0 0 
0 0 0 0 0 0 0 0 0 0 0 0 0 0 0 0 0 0 0 0 0 0 0 0 
0 0 0 11 53 138 19 89 233 19 89 232 19 89 232 19 89 232 19 89 232 19 89 232 
19 89 232 19 89 232 19 89 232 19 89 232 19 89 232 20 94 246 3 13 35 0 0 0 
0 0 0 0 0 0 0 0 0 0 0 0 0 0 0 0 0 0 0 0 0 0 0 0 

0 0 0 0 0 0 0 0 0 0 0 0 0 0 0 0 0 0 0 0 0 0 0 0 
0 0 0 5 23 60 20 93 244 19 89 232 19 89 232 19 89 232 19 89 232 19 89 232 
19 89 232 19 89 232 19 89 232 19 89 232 19 89 232 21 97 252 0 2 6 0 0 0 
0 0 0 0 0 0 0 0 0 0 0 0 0 0 0 0 0 0 0 0 0 0 0 0 
0 0 0 0 0 0 7 30 78 20 92 241 19 89 232 19 89 232 19 89 232 19 89 232 
19 89 232 19 89 232 19 89 232 19 89 232 19 89 232 14 66 172 0 0 0 0 0 0 
0 0 0 0 0 0 0 0 0 0 0 0 0 0 0 0 0 0 0 0 0 0 0 0 
0 0 0 0 0 0 14 64 166 19 90 236 19 89 232 19 89 232 19 89 232 19 89 232 
19 89 232 19 89 232 19 89 232 19 89 232 19 89 232 19 90 234 12 56 147 0 0 0 
0 0 0 0 0 0 0 0 0 0 0 0 0 0 0 0 0 0 0 0 0 0 0 0 

0 0 0 0 0 0 0 0 0 0 0 0 0 0 0 0 0 0 0 0 0 0 0 0 
0 0 1 15 72 187 19 89 231 19 89 232 19 89 232 19 89 232 19 89 232 19 89 232 
19 89 232 19 89 232 19 89 232 19 89 232 19 89 231 4 16 43 0 0 0 0 0 0 
0 0 0 0 0 0 0 0 0 0 0 0 0 0 0 0 0 0 0 0 0 0 0 0 
0 0 0 0 0 0 7 30 78 20 92 241 19 89 232 19 89 232 19 89 232 19 89 232 
19 89 232 19 89 232 19 89 232 19 89 232 19 89 232 14 66 172 0 0 0 0 0 0 
0 0 0 0 0 0 0 0 0 0 0 0 0 0 0 0 0 0 0 0 0 0 0 0 
0 0 0 0 0 1 0 0 0 17 81 212 19 89 232 19 89 232 19 89 232 19 89 232 
19 89 232 19 89 232 19 89 232 19 89 232 19 89 232 19 89 232 18 83 217 1 3 8 
0 0 0 0 0 0 0 0 0 0 0 0 0 0 0 0 0 0 0 0 0 0 0 0 

0 0 0 0 0 0 0 0 0 0 0 0 0 0 0 0 0 0 0 0 0 0 0 0 
1 5 12 19 91 237 19 89 232 19 89 232 19 89 232 19 89 232 19 89 232 19 89 232 
19 89 232 19 89 232 19 89 232 19 89 231 15 69 180 0 0 0 0 0 0 0 0 0 
0 0 0 0 0 0 0 0 0 0 0 0 0 0 0 0 0 0 0 0 0 0 0 0 
0 0 0 0 0 0 7 30 78 20 92 241 19 89 232 19 89 232 19 89 232 19 89 232 
19 89 232 19 89 232 19 89 232 19 89 232 19 89 232 14 66 172 0 0 0 0 0 0 
0 0 0 0 0 0 0 0 0 0 0 0 0 0 0 0 0 0 0 0 0 0 0 0 
0 0 0 0 0 0 0 0 0 8 34 87 20 92 240 19 89 232 19 89 232 19 89 232 
19 89 232 19 89 232 19 89 232 19 89 232 19 89 232 19 89 232 19 91 238 5 24 63 
0 0 0 0 0 0 0 0 0 0 0 0 0 0 0 0 0 0 0 0 0 0 0 0 

0 0 0 0 0 0 0 0 0 0 0 0 0 0 0 0 0 0 0 0 0 0 0 0 
8 37 96 19 91 237 19 89 232 19 89 232 19 89 232 19 89 232 19 89 232 19 89 232 
19 89 232 19 89 232 19 89 232 19 88 230 0 0 0 0 0 0 0 0 0 0 0 0 
0 0 0 0 0 0 0 0 0 0 0 0 0 0 0 0 0 0 0 0 0 0 0 0 
0 0 0 0 0 0 7 30 78 20 92 241 19 89 232 19 89 232 19 89 232 19 89 232 
19 89 232 19 89 232 19 89 232 19 89 232 19 89 232 14 66 172 0 0 0 0 0 0 
0 0 0 0 0 0 0 0 0 0 0 0 0 0 0 0 0 0 0 0 0 0 0 0 
0 0 0 0 0 0 0 0 0 0 0 0 15 70 182 19 89 232 19 89 232 19 89 232 
19 89 232 19 89 232 19 89 232 19 89 232 19 89 232 19 89 232 19 89 233 18 85 220 
0 0 0 0 0 0 0 0 0 0 0 0 0 0 0 0 0 0 0 0 0 0 0 0 

0 0 0 0 0 0 0 0 0 0 0 0 0 0 0 0 0 0 0 0 0 0 0 0 
20 94 246 19 89 232 19 89 232 19 89 232 19 89 232 19 89 232 19 89 232 19 89 232 
19 89 232 19 89 232 19 89 233 8 38 100 0 0 0 0 0 0 0 0 0 0 0 0 
0 0 0 0 0 0 0 0 0 0 0 0 0 0 0 0 0 0 0 0 0 0 0 0 
0 0 0 0 0 0 7 30 78 20 92 241 19 89 232 19 89 232 19 89 232 19 89 232 
19 89 232 19 89 232 19 89 232 19 89 232 19 89 232 14 66 172 0 0 0 0 0 0 
0 0 0 0 0 0 0 0 0 0 0 0 0 0 0 0 0 0 0 0 0 0 0 0 
0 0 0 0 0 0 0 0 0 0 0 0 5 21 56 19 89 233 19 89 232 19 89 232 
19 89 232 19 89 232 19 89 232 19 89 232 19 89 232 19 89 232 19 89 232 20 92 239 
2 8 21 0 0 0 0 0 0 0 0 0 0 0 0 0 0 0 0 0 0 0 0 0 

0 0 0 0 0 0 0 0 0 0 0 0 0 0 0 0 0 0 0 0 0 1 3 7 
20 92 240 19 89 232 19 89 232 19 89 232 19 89 232 19 89 232 19 89 232 19 89 232 
19 89 232 19 89 232 19 87 228 3 14 36 0 0 0 0 0 0 0 0 0 0 0 0 
0 0 0 0 0 0 0 0 0 0 0 0 0 0 0 0 0 0 0 0 0 0 0 0 
0 0 0 0 0 0 7 30 78 20 92 241 19 89 232 19 89 232 19 89 232 19 89 232 
19 89 232 19 89 232 19 89 232 19 89 232 19 89 232 14 66 172 0 0 0 0 0 0 
0 0 0 0 0 0 0 0 0 0 0 0 0 0 0 0 0 0 0 0 0 0 0 0 
0 0 0 0 0 0 0 0 0 0 0 0 0 0 0 19 87 227 19 89 231 19 89 232 
19 89 232 19 89 232 19 89 232 19 89 232 19 89 232 19 89 232 19 89 232 19 90 235 
6 28 74 0 0 0 0 0 0 0 0 0 0 0 0 0 0 0 0 0 0 0 0 0 

0 0 0 0 0 0 0 0 0 0 0 0 0 0 0 0 0 0 0 0 0 6 27 70 
19 90 235 19 89 232 19 89 232 19 89 232 19 89 232 19 89 232 19 89 232 19 89 232 
19 89 232 19 89 233 17 78 204 0 0 0 0 0 0 0 0 0 0 0 0 0 0 0 
0 0 0 0 0 0 0 0 0 0 0 0 0 0 0 0 0 0 0 0 0 0 0 0 
0 0 0 0 0 0 7 30 78 20 92 241 19 89 232 19 89 232 19 89 232 19 89 232 
19 89 232 19 89 232 19 89 232 19 89 232 19 89 232 14 66 172 0 0 0 0 0 0 
0 0 0 0 0 0 0 0 0 0 0 0 0 0 0 0 0 0 0 0 0 0 0 0 
0 0 0 0 0 0 0 0 0 0 0 0 0 0 0 7 32 83 20 92 241 19 89 232 
19 89 232 19 89 232 19 89 232 19 89 232 19 89 232 19 89 232 19 89 232 19 89 232 
11 52 135 0 0 0 0 0 0 0 0 0 0 0 0 0 0 0 0 0 0 0 0 0 

0 0 0 0 0 0 0 0 0 0 0 0 0 0 0 0 0 0 0 0 0 10 45 116 
19 89 232 19 89 232 19 89 232 19 89 232 19 89 232 19 89 232 19 89 232 19 89 232 
19 89 232 20 92 239 10 43 112 0 0 0 0 0 0 0 0 0 0 0 0 0 0 0 
0 0 0 0 0 0 0 0 0 0 0 0 0 0 0 0 0 0 0 0 0 0 0 0 
0 0 0 0 0 0 7 30 78 20 92 241 19 89 232 19 89 232 19 89 232 19 89 232 
19 89 232 19 89 232 19 89 232 19 89 232 19 89 232 14 66 172 0 0 0 0 0 0 
0 0 0 0 0 0 0 0 0 0 0 0 0 0 0 0 0 0 0 0 0 0 0 0 
0 0 0 0 0 0 0 0 0 0 0 0 0 0 0 0 0 0 20 95 248 19 89 232 
19 89 232 19 89 232 19 89 232 19 89 232 19 89 232 19 89 232 19 89 232 19 89 232 
15 70 182 0 0 0 0 0 0 0 0 0 0 0 0 0 0 0 0 0 0 0 0 0 

0 0 0 0 0 0 0 0 0 0 0 0 0 0 0 0 0 0 0 0 0 12 57 149 
19 89 232 19 89 232 19 89 232 19 89 232 19 89 232 19 89 232 19 89 232 19 89 232 
19 89 232 20 96 249 0 0 0 0 0 0 0 0 0 0 0 0 0 0 0 0 0 0 
0 0 0 0 0 0 0 0 0 0 0 0 0 0 0 0 0 0 0 0 0 0 0 0 
0 0 0 0 0 0 7 30 78 20 92 241 19 89 232 19 89 232 19 89 232 19 89 232 
19 89 232 19 89 232 19 89 232 19 89 232 19 89 232 14 66 172 0 0 0 0 0 0 
0 0 0 0 0 0 0 0 0 0 0 0 0 0 0 0 0 0 0 0 0 0 0 0 
0 0 0 0 0 0 0 0 0 0 0 0 0 0 0 0 0 0 16 76 198 19 89 232 
19 89 232 19 89 232 19 89 232 19 89 232 19 89 232 19 89 232 19 89 232 19 89 232 
18 82 214 0 0 0 0 0 0 0 0 0 0 0 0 0 0 0 0 0 0 0 0 0 

0 0 0 0 0 0 0 0 0 0 0 0 0 0 0 0 0 0 0 0 0 15 70 181 
19 89 232 19 89 232 19 89 232 19 89 232 19 89 232 19 89 232 19 89 232 19 89 232 
19 89 232 17 81 210 0 0 0 0 0 0 0 0 0 0 0 0 0 0 0 0 0 0 
0 0 0 0 0 0 0 0 0 0 0 0 0 0 0 0 0 0 0 0 0 0 0 0 
0 0 0 0 0 0 7 30 78 20 92 241 19 89 232 19 89 232 19 89 232 19 89 232 
19 89 232 19 89 232 19 89 232 19 89 232 19 89 232 14 66 172 0 0 0 0 0 0 
0 0 0 0 0 0 0 0 0 0 0 0 0 0 0 0 0 0 0 0 0 0 0 0 
0 0 0 0 0 0 0 0 0 0 0 0 0 0 0 0 0 0 12 56 145 19 89 232 
19 89 232 19 89 232 19 89 232 19 89 232 19 89 232 19 89 232 19 89 232 19 89 232 
20 95 246 0 0 0 0 0 0 0 0 0 0 0 0 0 0 0 0 0 0 0 0 0 

0 0 0 0 0 0 0 0 0 0 0 0 0 0 0 0 0 0 0 0 0 19 88 230 
19 89 232 19 89 232 19 89 232 19 89 232 19 89 232 19 89 232 19 89 232 19 89 232 
19 89 232 15 70 183 0 0 0 0 0 0 0 0 0 0 0 0 0 0 0 0 0 0 
0 0 0 0 0 0 0 0 0 0 0 0 0 0 0 0 0 0 0 0 0 0 0 0 
0 0 0 0 0 0 7 32 81 20 92 240 19 89 232 19 89 232 19 89 232 19 89 232 
19 89 232 19 89 232 19 89 232 19 89 232 19 89 231 15 69 179 0 0 0 0 0 0 
0 0 0 0 0 0 0 0 0 0 0 0 0 0 0 0 0 0 0 0 0 0 0 0 
0 0 0 0 0 0 0 0 0 0 0 0 0 0 0 0 0 0 9 44 115 19 89 232 
19 89 232 19 89 232 19 89 232 19 89 232 19 89 232 19 89 232 19 89 232 19 89 232 
20 95 246 0 0 0 0 0 0 0 0 0 0 0 0 0 0 0 0 0 0 0 0 0 

0 0 0 0 0 0 0 0 0 0 0 0 0 0 0 0 0 0 0 0 0 20 95 246 
19 89 232 19 89 232 19 89 232 19 89 232 19 89 232 19 89 232 19 89 232 19 89 232 
19 89 232 11 53 138 0 0 0 0 0 0 0 0 0 0 0 0 0 0 0 0 0 0 
0 0 0 0 0 0 0 0 0 0 0 0 0 0 0 0 0 0 0 0 0 0 0 0 
0 0 0 0 0 0 1 5 15 20 94 246 19 89 232 19 89 232 19 89 232 19 89 232 
19 89 232 19 89 232 19 89 232 19 89 232 20 92 241 6 28 71 0 0 0 0 0 0 
0 0 0 0 0 0 0 0 0 0 0 0 0 0 0 0 0 0 0 0 0 0 0 0 
0 0 0 0 0 0 0 0 0 0 0 0 0 0 0 0 0 0 8 38 99 19 89 233 
19 89 232 19 89 232 19 89 232 19 89 232 19 89 232 19 89 232 19 89 232 19 89 232 
20 95 246 0 0 0 0 0 0 0 0 0 0 0 0 0 0 0 0 0 0 0 0 0 

0 0 0 0 0 0 0 0 0 0 0 0 0 0 0 0 0 0 0 0 0 20 95 246 
19 89 232 19 89 232 19 89 232 19 89 232 19 89 232 19 89 232 19 89 232 19 89 232 
19 89 232 9 44 116 0 0 0 0 0 0 0 0 0 0 0 0 0 0 0 0 0 0 
0 0 0 0 0 0 0 0 0 0 0 0 0 0 0 0 0 0 0 0 0 0 0 0 
0 0 0 0 0 0 0 0 0 21 97 253 19 89 232 19 89 232 19 89 232 19 89 232 
19 89 232 19 89 232 19 89 232 19 89 232 20 92 240 7 32 81 0 0 0 0 0 0 
0 0 0 0 0 0 0 0 0 0 0 0 0 0 0 0 0 0 0 0 0 0 0 0 
0 0 0 0 0 0 0 0 0 0 0 0 0 0 0 0 0 0 4 20 50 19 91 237 
19 89 232 19 89 232 19 89 232 19 89 232 19 89 232 19 89 232 19 89 232 19 89 232 
20 95 246 0 0 0 0 0 0 0 0 0 0 0 0 0 0 0 0 0 0 0 0 0 

0 0 0 0 0 0 0 0 0 0 0 0 0 0 0 0 0 0 0 0 0 20 95 246 
19 89 232 19 89 232 19 89 232 19 89 232 19 89 232 19 89 232 19 89 232 19 89 232 
19 89 232 10 44 116 0 0 0 0 0 0 0 0 0 0 0 0 0 0 0 0 0 0 
0 0 0 0 0 0 0 0 0 0 0 0 0 0 0 0 0 0 0 0 0 0 0 0 
0 0 0 0 0 0 0 0 0 9 40 104 19 90 234 19 89 232 19 89 232 19 89 232 
19 89 232 19 89 232 19 89 232 19 89 232 17 80 209 0 0 0 0 0 0 0 0 0 
0 0 0 0 0 0 0 0 0 0 0 0 0 0 0 0 0 0 0 0 0 0 0 0 
0 0 0 0 0 0 0 0 0 0 0 0 0 0 0 0 0 0 4 20 51 19 91 237 
19 89 232 19 89 232 19 89 232 19 89 232 19 89 232 19 89 232 19 89 232 19 89 232 
20 95 246 0 0 0 0 0 0 0 0 0 0 0 0 0 0 0 0 0 0 0 0 0 

0 0 0 0 0 0 0 0 0 0 0 0 0 0 0 0 0 0 0 0 0 20 95 246 
19 89 232 19 89 232 19 89 232 19 89 232 19 89 232 19 89 232 19 89 232 19 89 232 
19 89 232 10 44 116 0 0 0 0 0 0 0 0 0 0 0 0 0 0 0 0 0 0 
0 0 0 0 0 0 0 0 0 0 0 0 0 0 0 0 0 0 0 0 0 0 0 0 
0 0 0 0 0 0 0 0 0 1 3 7 17 80 210 19 89 233 19 89 232 19 89 232 
19 89 232 19 89 232 19 89 233 18 86 225 3 14 35 0 0 0 0 0 0 0 0 0 
0 0 0 0 0 0 0 0 0 0 0 0 0 0 0 0 0 0 0 0 0 0 0 0 
0 0 0 0 0 0 0 0 0 0 0 0 0 0 0 0 0 0 4 20 51 19 91 237 
19 89 232 19 89 232 19 89 232 19 89 232 19 89 232 19 89 232 19 89 232 19 89 232 
20 95 246 0 0 0 0 0 0 0 0 0 0 0 0 0 0 0 0 0 0 0 0 0 

0 0 0 0 0 0 0 0 0 0 0 0 0 0 0 0 0 0 0 0 0 20 95 246 
19 89 232 19 89 232 19 89 232 19 89 232 19 89 232 19 89 232 19 89 232 19 89 232 
19 89 232 9 43 111 0 0 0 0 0 0 0 0 0 0 0 0 0 0 0 0 0 0 
0 0 0 0 0 0 0 0 0 0 0 0 0 0 0 0 0 0 0 0 0 0 0 0 
0 0 0 0 0 0 0 0 0 0 0 0 0 2 5 13 60 158 21 96 250 20 92 240 
20 92 240 20 94 244 15 70 182 3 14 37 0 0 0 0 0 0 0 0 0 0 0 0 
0 0 0 0 0 0 0 0 0 0 0 0 0 0 0 0 0 0 0 0 0 0 0 0 
0 0 0 0 0 0 0 0 0 0 0 0 0 0 0 0 0 0 6 28 73 19 90 235 
19 89 232 19 89 232 19 89 232 19 89 232 19 89 232 19 89 232 19 89 232 19 89 232 
20 95 246 0 0 0 0 0 0 0 0 0 0 0 0 0 0 0 0 0 0 0 0 0 

0 0 0 0 0 0 0 0 0 0 0 0 0 0 0 0 0 0 0 0 0 19 88 230 
19 89 232 19 89 232 19 89 232 19 89 232 19 89 232 19 89 232 19 89 232 19 89 232 
19 89 232 16 72 186 0 0 0 0 0 0 0 0 0 0 0 0 0 0 0 0 0 0 
0 0 0 0 0 0 0 0 0 0 0 0 0 0 0 0 0 0 0 0 0 0 0 0 
0 0 0 0 0 0 0 0 0 0 0 0 0 0 0 0 0 0 0 0 0 7 31 81 
7 31 79 3 13 35 0 0 0 0 0 0 0 0 0 0 0 0 0 0 0 0 0 0 
0 0 0 0 0 0 0 0 0 0 0 0 0 0 0 0 0 0 0 0 0 0 0 0 
0 0 0 0 0 0 0 0 0 0 0 0 0 0 0 0 0 0 10 45 117 19 89 232 
19 89 232 19 89 232 19 89 232 19 89 232 19 89 232 19 89 232 19 89 232 19 89 232 
20 95 246 0 0 0 0 0 0 0 0 0 0 0 0 0 0 0 0 0 0 0 0 0 

0 0 0 0 0 0 0 0 0 0 0 0 0 0 0 0 0 0 0 0 0 15 70 181 
19 89 232 19 89 232 19 89 232 19 89 232 19 89 232 19 89 232 19 89 232 19 89 232 
19 89 232 15 69 179 0 0 0 0 0 0 0 0 0 0 0 0 0 0 0 0 0 0 
0 0 0 0 0 0 0 0 0 0 0 0 0 0 0 0 0 0 0 0 0 0 0 0 
0 0 0 0 0 0 0 0 0 0 0 0 0 0 0 0 0 0 0 0 0 0 0 0 
0 0 0 0 0 0 0 0 0 0 0 0 0 0 0 0 0 0 0 0 0 0 0 0 
0 0 0 0 0 0 0 0 0 0 0 0 0 0 0 0 0 0 0 0 0 0 0 0 
0 0 0 0 0 0 0 0 0 0 0 0 0 0 0 0 0 0 12 56 145 19 89 232 
19 89 232 19 89 232 19 89 232 19 89 232 19 89 232 19 89 232 19 89 232 19 89 232 
20 95 246 0 0 0 0 0 0 0 0 0 0 0 0 0 0 0 0 0 0 0 0 0 

0 0 0 0 0 0 0 0 0 0 0 0 0 0 0 0 0 0 0 0 0 14 64 167 
19 89 232 19 89 232 19 89 232 19 89 232 19 89 232 19 89 232 19 89 232 19 89 232 
19 89 232 21 96 251 0 0 0 0 0 0 0 0 0 0 0 0 0 0 0 0 0 0 
0 0 0 0 0 0 0 0 0 0 0 0 0 0 0 0 0 0 0 0 0 0 0 0 
0 0 0 0 0 0 0 0 0 0 0 0 0 0 0 0 0 0 0 0 0 0 0 0 
0 0 0 0 0 0 0 0 0 0 0 0 0 0 0 0 0 0 0 0 0 0 0 0 
0 0 0 0 0 0 0 0 0 0 0 0 0 0 0 0 0 0 0 0 0 0 0 0 
0 0 0 0 0 0 0 0 0 0 0 0 0 0 0 0 0 0 15 69 179 19 89 232 
19 89 232 19 89 232 19 89 232 19 89 232 19 89 232 19 89 232 19 89 232 19 89 232 
19 89 232 0 0 0 0 0 0 0 0 0 0 0 0 0 0 0 0 0 0 0 0 0 

0 0 0 0 0 0 0 0 0 0 0 0 0 0 0 0 0 0 0 0 0 9 44 115 
19 89 232 19 89 232 19 89 232 19 89 232 19 89 232 19 89 232 19 89 232 19 89 232 
19 89 232 20 93 243 5 20 53 0 0 0 0 0 0 0 0 0 0 0 0 0 0 0 
0 0 0 0 0 0 0 0 0 0 0 0 0 0 0 0 0 0 0 0 0 0 0 0 
0 0 0 0 0 0 0 0 0 0 0 0 0 0 0 0 0 0 0 0 0 0 0 0 
0 0 0 0 0 0 0 0 0 0 0 0 0 0 0 0 0 0 0 0 0 0 0 0 
0 0 0 0 0 0 0 0 0 0 0 0 0 0 0 0 0 0 0 0 0 0 0 0 
0 0 0 0 0 0 0 0 0 0 0 0 0 0 0 0 0 0 20 96 249 19 89 232 
19 89 232 19 89 232 19 89 232 19 89 232 19 89 232 19 89 232 19 89 232 19 89 232 
15 69 180 0 0 0 0 0 0 0 0 0 0 0 0 0 0 0 0 0 0 0 0 0 

0 0 0 0 0 0 0 0 0 0 0 0 0 0 0 0 0 0 0 0 0 8 36 94 
19 90 234 19 89 232 19 89 232 19 89 232 19 89 232 19 89 232 19 89 232 19 89 232 
19 89 232 19 91 237 12 55 143 0 0 0 0 0 0 0 0 0 0 0 0 0 0 0 
0 0 0 0 0 0 0 0 0 0 0 0 0 0 0 0 0 0 0 0 0 0 0 0 
0 0 0 0 0 0 0 0 0 0 0 0 0 0 0 0 0 0 0 0 0 0 0 0 
0 0 0 0 0 0 0 0 0 0 0 0 0 0 0 0 0 0 0 0 0 0 0 0 
0 0 0 0 0 0 0 0 0 0 0 0 0 0 0 0 0 0 0 0 0 0 0 0 
0 0 0 0 0 0 0 0 0 0 0 0 0 0 0 6 27 70 20 93 241 19 89 232 
19 89 232 19 89 232 19 89 232 19 89 232 19 89 232 19 89 232 19 89 232 19 89 232 
13 61 159 0 0 0 0 0 0 0 0 0 0 0 0 0 0 0 0 0 0 0 0 0 

0 0 0 0 0 0 0 0 0 0 0 0 0 0 0 0 0 0 0 0 0 3 12 32 
19 91 238 19 89 232 19 89 232 19 89 232 19 89 232 19 89 232 19 89 232 19 89 232 
19 89 232 19 89 232 19 87 226 1 5 14 0 0 0 0 0 0 0 0 0 0 0 0 
0 0 0 0 0 0 0 0 0 0 0 0 0 0 0 0 0 0 0 0 0 0 0 0 
0 0 0 0 0 0 0 0 0 0 0 0 0 0 0 0 0 0 0 0 0 0 0 0 
0 0 0 0 0 0 0 0 0 0 0 0 0 0 0 0 0 0 0 0 0 0 0 0 
0 0 0 0 0 0 0 0 0 0 0 0 0 0 0 0 0 0 0 0 0 0 0 0 
0 0 0 0 0 0 0 0 0 0 0 0 0 0 0 15 69 180 19 90 234 19 89 232 
19 89 232 19 89 232 19 89 232 19 89 232 19 89 232 19 89 232 19 89 232 19 89 233 
8 37 97 0 0 0 0 0 0 0 0 0 0 0 0 0 0 0 0 0 0 0 0 0 

0 0 0 0 0 0 0 0 0 0 0 0 0 0 0 0 0 0 0 0 0 0 0 0 
20 94 246 19 89 232 19 89 232 19 89 232 19 89 232 19 89 232 19 89 232 19 89 232 
19 89 232 19 89 232 19 89 233 4 21 54 0 0 0 0 0 0 0 0 0 0 0 0 
0 0 0 0 0 0 0 0 0 0 0 0 0 0 0 0 0 0 0 0 0 0 0 0 
0 0 0 0 0 0 0 0 0 0 0 0 0 0 0 0 0 0 0 0 0 0 0 0 
0 0 0 0 0 0 0 0 0 0 0 0 0 0 0 0 0 0 0 0 0 0 0 0 
0 0 0 0 0 0 0 0 0 0 0 0 0 0 0 0 0 0 0 0 0 0 0 0 
0 0 0 0 0 0 0 0 0 0 0 0 2 9 24 18 86 225 19 89 232 19 89 232 
19 89 232 19 89 232 19 89 232 19 89 232 19 89 232 19 89 232 19 89 232 19 91 237 
5 21 53 0 0 0 0 0 0 0 0 0 0 0 0 0 0 0 0 0 0 0 0 0 

0 0 0 0 0 0 0 0 0 0 0 0 0 0 0 0 0 0 0 0 0 0 0 0 
11 50 128 19 90 236 19 89 232 19 89 232 19 89 232 19 89 232 19 89 232 19 89 232 
19 89 232 19 89 232 19 89 232 17 80 208 0 0 0 0 0 0 0 0 0 0 0 0 
0 0 0 0 0 0 0 0 0 0 0 0 0 0 0 0 0 0 0 0 0 0 0 0 
0 0 0 0 0 0 0 0 0 0 0 0 0 0 0 0 0 0 0 0 0 0 0 0 
0 0 0 0 0 0 0 0 0 0 0 0 0 0 0 0 0 0 0 0 0 0 0 0 
0 0 0 0 0 0 0 0 0 0 0 0 0 0 0 0 0 0 0 0 0 0 0 0 
0 0 0 0 0 0 0 0 0 0 0 0 9 40 103 19 89 233 19 89 232 19 89 232 
19 89 232 19 89 232 19 89 232 19 89 232 19 89 232 19 89 232 19 89 232 20 95 249 
0 0 0 0 0 0 0 0 0 0 0 0 0 0 0 0 0 0 0 0 0 0 0 0 

0 0 0 0 0 0 0 0 0 0 0 0 0 0 0 0 0 0 0 0 0 0 0 0 
1 4 10 20 92 239 19 89 232 19 89 232 19 89 232 19 89 232 19 89 232 19 89 232 
19 89 232 19 89 232 19 89 232 20 92 240 8 34 87 0 0 0 0 0 0 0 0 0 
0 0 0 0 0 0 0 0 0 0 0 0 0 0 0 0 0 0 0 0 0 0 0 0 
0 0 0 0 0 0 0 0 0 0 0 0 0 0 0 0 0 0 0 0 0 0 0 0 
0 0 0 0 0 0 0 0 0 0 0 0 0 0 0 0 0 0 0 0 0 0 0 0 
0 0 0 0 0 0 0 0 0 0 0 0 0 0 0 0 0 0 0 0 0 0 0 0 
0 0 0 0 0 0 0 0 0 0 0 0 21 97 252 19 89 232 19 89 232 19 89 232 
19 89 232 19 89 232 19 89 232 19 89 232 19 89 232 19 89 232 19 91 236 10 47 120 
0 0 0 0 0 0 0 0 0 0 0 0 0 0 0 0 0 0 0 0 0 0 0 0 

0 0 0 0 0 0 0 0 0 0 0 0 0 0 0 0 0 0 0 0 0 0 0 0 
0 2 5 16 76 198 19 89 232 19 89 232 19 89 232 19 89 232 19 89 232 19 89 232 
19 89 232 19 89 232 19 89 232 19 89 232 16 76 198 0 0 0 0 0 0 0 0 0 
0 0 0 0 0 0 0 0 0 0 0 0 0 0 0 0 0 0 0 0 0 0 0 0 
0 0 0 0 0 0 0 0 0 0 0 0 0 0 0 0 0 0 0 0 0 0 0 0 
0 0 0 0 0 0 0 0 0 0 0 0 0 0 0 0 0 0 0 0 0 0 0 0 
0 0 0 0 0 0 0 0 0 0 0 0 0 0 0 0 0 0 0 0 0 0 0 0 
0 0 0 0 0 0 0 0 0 13 62 161 19 89 233 19 89 232 19 89 232 19 89 232 
19 89 232 19 89 232 19 89 232 19 89 232 19 89 232 19 89 232 19 87 228 2 10 25 
0 0 0 0 0 0 0 0 0 0 0 0 0 0 0 0 0 0 0 0 0 0 0 0 

0 0 0 0 0 0 0 0 0 0 0 0 0 0 0 0 0 0 0 0 0 0 0 0 
0 0 0 12 57 148 19 90 234 19 89 232 19 89 232 19 89 232 19 89 232 19 89 232 
19 89 232 19 89 232 19 89 232 19 89 232 20 91 238 10 46 120 0 0 0 0 0 0 
0 0 0 0 0 0 0 0 0 0 0 0 0 0 0 0 0 0 0 0 0 0 0 0 
0 0 0 0 0 0 0 0 0 0 0 0 0 0 0 0 0 0 0 0 0 0 0 0 
0 0 0 0 0 0 0 0 0 0 0 0 0 0 0 0 0 0 0 0 0 0 0 0 
0 0 0 0 0 0 0 0 0 0 0 0 0 0 0 0 0 0 0 0 0 0 0 0 
0 0 0 0 0 0 3 15 39 19 88 230 19 89 232 19 89 232 19 89 232 19 89 232 
19 89 232 19 89 232 19 89 232 19 89 232 19 89 232 19 89 232 16 76 199 0 2 5 
0 0 0 0 0 0 0 0 0 0 0 0 0 0 0 0 0 0 0 0 0 0 0 0 

0 0 0 0 0 0 0 0 0 0 0 0 0 0 0 0 0 0 0 0 0 0 0 0 
0 0 0 3 13 35 20 94 246 19 89 232 19 89 232 19 89 232 19 89 232 19 89 232 
19 89 232 19 89 232 19 89 232 19 89 232 19 89 232 19 90 236 6 28 73 0 0 0 
0 0 0 0 0 0 0 0 0 0 0 0 0 0 0 0 0 0 0 0 0 0 0 0 
0 0 0 0 0 0 0 0 0 0 0 0 0 0 0 0 0 0 0 0 0 0 0 0 
0 0 0 0 0 0 0 0 0 0 0 0 0 0 0 0 0 0 0 0 0 0 0 0 
0 0 0 0 0 0 0 0 0 0 0 0 0 0 0 0 0 0 0 0 0 0 0 0 
0 0 0 1 5 13 19 89 233 19 89 232 19 89 232 19 89 232 19 89 232 19 89 232 
19 89 232 19 89 232 19 89 232 19 89 232 19 89 232 20 92 240 8 34 87 0 0 0 
0 0 0 0 0 0 0 0 0 0 0 0 0 0 0 0 0 0 0 0 0 0 0 0 

0 0 0 0 0 0 0 0 0 0 0 0 0 0 0 0 0 0 0 0 0 0 0 0 
0 0 0 0 0 0 13 60 157 19 89 233 19 89 232 19 89 232 19 89 232 19 89 232 
19 89 232 19 89 232 19 89 232 19 89 232 19 89 232 19 89 232 18 84 219 1 4 10 
0 0 0 0 0 0 0 0 0 0 0 0 0 0 0 0 0 0 0 0 0 0 0 0 
0 0 0 0 0 0 0 0 0 0 0 0 0 0 0 0 0 0 0 0 0 0 0 0 
0 0 0 0 0 0 0 0 0 0 0 0 0 0 0 0 0 0 0 0 0 0 0 0 
0 0 0 0 0 0 0 0 0 0 0 0 0 0 0 0 0 0 0 0 0 0 0 0 
0 0 0 14 65 170 19 89 232 19 89 232 19 89 232 19 89 232 19 89 232 19 89 232 
19 89 232 19 89 232 19 89 232 19 89 232 19 89 232 17 80 208 0 0 0 0 0 0 
0 0 0 0 0 0 0 0 0 0 0 0 0 0 0 0 0 0 0 0 0 0 0 0 

0 0 0 0 0 0 0 0 0 0 0 0 0 0 0 0 0 0 0 0 0 0 0 0 
0 0 0 0 0 0 2 9 22 18 86 225 19 89 232 19 89 232 19 89 232 19 89 232 
19 89 232 19 89 232 19 89 232 19 89 232 19 89 232 19 89 232 19 89 232 19 88 229 
1 6 16 0 0 0 0 0 0 0 0 0 0 0 0 0 0 0 0 0 0 0 0 0 
0 0 0 0 0 0 0 0 0 0 0 0 0 0 0 0 0 0 0 0 0 0 0 0 
0 0 0 0 0 0 0 0 0 0 0 0 0 0 0 0 0 0 0 0 0 0 0 0 
0 0 0 0 0 0 0 0 0 0 0 0 0 0 0 0 0 0 0 0 0 0 0 0 
14 66 172 19 91 236 19 89 232 19 89 232 19 89 232 19 89 232 19 89 232 19 89 232 
19 89 232 19 89 232 19 89 232 19 89 232 19 89 233 4 21 54 0 0 0 0 0 0 
0 0 0 0 0 0 0 0 0 0 0 0 0 0 0 0 0 0 0 0 0 0 0 0 

0 0 0 0 0 0 0 0 0 0 0 0 0 0 0 0 0 0 0 0 0 0 0 0 
0 0 0 0 0 0 0 0 0 12 55 142 19 91 237 19 89 232 19 89 232 19 89 232 
19 89 232 19 89 232 19 89 232 19 89 232 19 89 232 19 89 232 19 89 232 19 89 233 
18 82 213 1 3 8 0 0 0 0 0 0 0 0 0 0 0 0 0 0 0 0 0 0 
0 0 0 0 0 0 0 0 0 0 0 0 0 0 0 0 0 0 0 0 0 0 0 0 
0 0 0 0 0 0 0 0 0 0 0 0 0 0 0 0 0 0 0 0 0 0 0 0 
0 0 0 0 0 0 0 0 0 0 0 0 0 0 0 0 0 0 0 0 0 13 61 160 
19 90 234 19 89 232 19 89 232 19 89 232 19 89 232 19 89 232 19 89 232 19 89 232 
19 89 232 19 89 232 19 89 232 19 89 231 19 89 231 0 0 0 0 0 0 0 0 0 
0 0 0 0 0 0 0 0 0 0 0 0 0 0 0 0 0 0 0 0 0 0 0 0 

0 0 0 0 0 0 0 0 0 0 0 0 0 0 0 0 0 0 0 0 0 0 0 0 
0 0 0 0 0 0 0 0 0 0 0 0 18 86 224 19 89 232 19 89 232 19 89 232 
19 89 232 19 89 232 19 89 232 19 89 232 19 89 232 19 89 232 19 89 232 19 89 232 
19 89 231 19 87 226 4 20 52 0 0 0 0 0 0 0 0 0 0 0 0 0 0 0 
0 0 0 0 0 0 0 0 0 0 0 0 0 0 0 0 0 0 0 0 0 0 0 0 
0 0 0 0 0 0 0 0 0 0 0 0 0 0 0 0 0 0 0 0 0 0 0 0 
0 0 0 0 0 0 0 0 0 0 0 0 0 0 0 1 6 16 14 68 178 19 91 238 
19 89 232 19 89 232 19 89 232 19 89 232 19 89 232 19 89 232 19 89 232 19 89 232 
19 89 232 19 89 232 19 89 232 19 91 238 2 8 21 0 0 0 0 0 0 0 0 0 
0 0 0 0 0 0 0 0 0 0 0 0 0 0 0 0 0 0 0 0 0 0 0 0 

0 0 0 0 0 0 0 0 0 0 0 0 0 0 0 0 0 0 0 0 0 0 0 0 
0 0 0 0 0 0 0 0 0 0 0 0 7 35 91 19 91 236 19 89 232 19 89 232 
19 89 232 19 89 232 19 89 232 19 89 232 19 89 232 19 89 232 19 89 232 19 89 232 
19 89 232 19 89 232 19 88 230 11 52 135 0 0 0 0 0 0 0 0 0 0 0 0 
0 0 0 0 0 0 0 0 0 0 0 0 0 0 0 0 0 0 0 0 0 0 0 0 
0 0 0 0 0 0 0 0 0 0 0 0 0 0 0 0 0 0 0 0 0 0 0 0 
0 0 0 0 0 0 0 0 0 0 0 0 6 28 71 18 86 224 19 89 233 19 89 232 
19 89 232 19 89 232 19 89 232 19 89 232 19 89 232 19 89 232 19 89 232 19 89 232 
19 89 232 19 89 232 19 89 232 13 60 158 0 0 0 0 0 0 0 0 0 0 0 0 
0 0 0 0 0 0 0 0 0 0 0 0 0 0 0 0 0 0 0 0 0 0 0 0 

0 0 0 0 0 0 0 0 0 0 0 0 0 0 0 0 0 0 0 0 0 0 0 0 
0 0 0 0 0 0 0 0 0 0 0 0 0 0 0 11 50 129 19 91 238 19 89 232 
19 89 232 19 89 232 19 89 232 19 89 232 19 89 232 19 89 232 19 89 232 19 89 232 
19 89 232 19 89 232 19 89 232 20 92 239 17 79 207 6 27 69 0 0 0 0 0 0 
0 0 0 0 0 0 0 0 0 0 0 0 0 0 0 0 0 0 0 0 0 0 0 0 
0 0 0 0 0 0 0 0 0 0 0 0 0 0 0 0 0 0 0 0 0 0 0 0 
0 0 0 0 0 0 3 13 34 14 67 173 20 94 245 19 89 232 19 89 232 19 89 232 
19 89 232 19 89 232 19 89 232 19 89 232 19 89 232 19 89 232 19 89 232 19 89 232 
19 89 232 19 90 234 18 86 223 0 0 0 0 0 0 0 0 0 0 0 0 0 0 0 
0 0 0 0 0 0 0 0 0 0 0 0 0 0 0 0 0 0 0 0 0 0 0 0 

0 0 0 0 0 0 0 0 0 0 0 0 0 0 0 0 0 0 0 0 0 0 0 0 
0 0 0 0 0 0 0 0 0 0 0 0 0 0 0 0 1 4 16 77 200 19 89 232 
19 89 232 19 89 232 19 89 232 19 89 232 19 89 232 19 89 232 19 89 232 19 89 232 
19 89 232 19 89 232 19 89 232 19 89 232 19 89 232 19 90 235 18 83 216 2 8 22 
1 3 7 0 0 0 0 0 0 0 0 0 0 0 0 0 0 0 0 0 0 0 0 0 
0 0 0 0 0 0 0 0 0 0 0 0 0 0 0 0 0 0 0 0 0 0 1 2 
2 7 18 12 59 153 20 93 242 19 89 232 19 89 232 19 89 232 19 89 232 19 89 232 
19 89 232 19 89 232 19 89 232 19 89 232 19 89 232 19 89 232 19 89 232 19 89 232 
19 89 232 18 85 221 0 1 3 0 0 0 0 0 0 0 0 0 0 0 0 0 0 0 
0 0 0 0 0 0 0 0 0 0 0 0 0 0 0 0 0 0 0 0 0 0 0 0 

0 0 0 0 0 0 0 0 0 0 0 0 0 0 0 0 0 0 0 0 0 0 0 0 
0 0 0 0 0 0 0 0 0 0 0 0 0 0 0 0 0 0 2 7 19 18 85 222 
19 89 232 19 89 232 19 89 232 19 89 232 19 89 232 19 89 232 19 89 232 19 89 232 
19 89 232 19 89 232 19 89 232 19 89 232 19 89 232 19 89 232 19 89 233 20 92 240 
17 79 206 14 63 165 7 30 78 1 5 15 0 0 0 0 0 0 0 0 0 0 0 0 
0 0 0 0 0 0 0 0 0 0 0 0 0 0 0 7 32 83 10 46 120 16 73 190 
20 92 241 19 90 235 19 89 232 19 89 232 19 89 232 19 89 232 19 89 232 19 89 232 
19 89 232 19 89 232 19 89 232 19 89 232 19 89 232 19 89 232 19 89 232 19 89 232 
21 97 252 6 28 73 0 0 0 0 0 0 0 0 0 0 0 0 0 0 0 0 0 0 
0 0 0 0 0 0 0 0 0 0 0 0 0 0 0 0 0 0 0 0 0 0 0 0 

0 0 0 0 0 0 0 0 0 0 0 0 0 0 0 0 0 0 0 0 0 0 0 0 
0 0 0 0 0 0 0 0 0 0 0 0 0 0 0 0 0 0 0 0 1 1 7 18 
19 89 231 19 89 232 19 89 232 19 89 232 19 89 232 19 89 232 19 89 232 19 89 232 
19 89 232 19 89 232 19 89 232 19 89 232 19 89 232 19 89 232 19 89 232 19 89 232 
19 89 232 19 89 233 20 92 240 20 94 246 21 97 253 13 57 149 13 60 154 13 60 154 
13 60 154 13 60 154 13 59 151 17 79 207 21 96 251 20 92 240 19 91 237 19 89 232 
19 89 232 19 89 232 19 89 232 19 89 232 19 89 232 19 89 232 19 89 232 19 89 232 
19 89 232 19 89 232 19 89 232 19 89 232 19 89 232 19 89 232 19 89 232 19 90 235 
6 28 72 0 0 0 0 0 0 0 0 0 0 0 0 0 0 0 0 0 0 0 0 0 
0 0 0 0 0 0 0 0 0 0 0 0 0 0 0 0 0 0 0 0 0 0 0 0 

0 0 0 0 0 0 0 0 0 0 0 0 0 0 0 0 0 0 0 0 0 0 0 0 
0 0 0 0 0 0 0 0 0 0 0 0 0 0 0 0 0 0 0 0 0 0 0 0 
5 23 60 20 95 249 19 89 232 19 89 232 19 89 232 19 89 232 19 89 232 19 89 232 
19 89 232 19 89 232 19 89 232 19 89 232 19 89 232 19 89 232 19 89 232 19 89 232 
19 89 232 19 89 232 19 89 232 19 89 232 19 89 232 19 89 233 19 89 233 19 89 233 
19 89 233 19 89 233 19 89 233 19 89 232 19 89 232 19 89 232 19 89 232 19 89 232 
19 89 232 19 89 232 19 89 232 19 89 232 19 89 232 19 89 232 19 89 232 19 89 232 
19 89 232 19 89 232 19 89 232 19 89 232 19 89 232 19 89 232 20 94 246 5 23 60 
0 0 0 0 0 0 0 0 0 0 0 0 0 0 0 0 0 0 0 0 0 0 0 0 
0 0 0 0 0 0 0 0 0 0 0 0 0 0 0 0 0 0 0 0 0 0 0 0 

0 0 0 0 0 0 0 0 0 0 0 0 0 0 0 0 0 0 0 0 0 0 0 0 
0 0 0 0 0 0 0 0 0 0 0 0 0 0 0 0 0 0 0 0 0 0 0 0 
0 0 0 2 10 26 18 85 221 19 90 234 19 89 232 19 89 232 19 89 232 19 89 232 
19 89 232 19 89 232 19 89 232 19 89 232 19 89 232 19 89 232 19 89 232 19 89 232 
19 89 232 19 89 232 19 89 232 19 89 232 19 89 232 19 89 232 19 89 232 19 89 232 
19 89 232 19 89 232 19 89 232 19 89 232 19 89 232 19 89 232 19 89 232 19 89 232 
19 89 232 19 89 232 19 89 232 19 89 232 19 89 232 19 89 232 19 89 232 19 89 232 
19 89 232 19 89 232 19 89 232 19 89 232 19 89 232 20 94 246 7 30 79 0 0 0 
0 0 0 0 0 0 0 0 0 0 0 0 0 0 0 0 0 0 0 0 0 0 0 0 
0 0 0 0 0 0 0 0 0 0 0 0 0 0 0 0 0 0 0 0 0 0 0 0 

0 0 0 0 0 0 0 0 0 0 0 0 0 0 0 0 0 0 0 0 0 0 0 0 
0 0 0 0 0 0 0 0 0 0 0 0 0 0 0 0 0 0 0 0 0 0 0 0 
0 0 0 0 0 0 0 1 3 17 82 213 19 89 233 19 89 232 19 89 232 19 89 232 
19 89 232 19 89 232 19 89 232 19 89 232 19 89 232 19 89 232 19 89 232 19 89 232 
19 89 232 19 89 232 19 89 232 19 89 232 19 89 232 19 89 232 19 89 232 19 89 232 
19 89 232 19 89 232 19 89 232 19 89 232 19 89 232 19 89 232 19 89 232 19 89 232 
19 89 232 19 89 232 19 89 232 19 89 232 19 89 232 19 89 232 19 89 232 19 89 232 
19 89 232 19 89 232 19 89 232 19 89 233 19 89 232 5 23 60 0 0 0 0 0 0 
0 0 0 0 0 0 0 0 0 0 0 0 0 0 0 0 0 0 0 0 0 0 0 0 
0 0 0 0 0 0 0 0 0 0 0 0 0 0 0 0 0 0 0 0 0 0 0 0 

0 0 0 0 0 0 0 0 0 0 0 0 0 0 0 0 0 0 0 0 0 0 0 0 
0 0 0 0 0 0 0 0 0 0 0 0 0 0 0 0 0 0 0 0 0 0 0 0 
0 0 0 0 0 0 0 0 0 1 5 12 12 57 150 19 91 238 19 89 232 19 89 232 
19 89 232 19 89 232 19 89 232 19 89 232 19 89 232 19 89 232 19 89 232 19 89 232 
19 89 232 19 89 232 19 89 232 19 89 232 19 89 232 19 89 232 19 89 232 19 89 232 
19 89 232 19 89 232 19 89 232 19 89 232 19 89 232 19 89 232 19 89 232 19 89 232 
19 89 232 19 89 232 19 89 232 19 89 232 19 89 232 19 89 232 19 89 232 19 89 232 
19 89 232 19 89 232 19 89 233 16 72 186 2 10 27 0 0 0 0 0 0 0 0 0 
0 0 0 0 0 0 0 0 0 0 0 0 0 0 0 0 0 0 0 0 0 0 0 0 
0 0 0 0 0 0 0 0 0 0 0 0 0 0 0 0 0 0 0 0 0 0 0 0 

0 0 0 0 0 0 0 0 0 0 0 0 0 0 0 0 0 0 0 0 0 0 0 0 
0 0 0 0 0 0 0 0 0 0 0 0 0 0 0 0 0 0 0 0 0 0 0 0 
0 0 0 0 0 0 0 0 0 0 0 0 0 0 0 9 44 113 18 84 218 19 90 233 
19 89 232 19 89 232 19 89 232 19 89 232 19 89 232 19 89 232 19 89 232 19 89 232 
19 89 232 19 89 232 19 89 232 19 89 232 19 89 232 19 89 232 19 89 232 19 89 232 
19 89 232 19 89 232 19 89 232 19 89 232 19 89 232 19 89 232 19 89 232 19 89 232 
19 89 232 19 89 232 19 89 232 19 89 232 19 89 232 19 89 232 19 89 232 19 89 232 
19 90 234 19 90 233 13 62 161 0 0 0 0 0 1 0 0 0 0 0 0 0 0 0 
0 0 0 0 0 0 0 0 0 0 0 0 0 0 0 0 0 0 0 0 0 0 0 0 
0 0 0 0 0 0 0 0 0 0 0 0 0 0 0 0 0 0 0 0 0 0 0 0 

0 0 0 0 0 0 0 0 0 0 0 0 0 0 0 0 0 0 0 0 0 0 0 0 
0 0 0 0 0 0 0 0 0 0 0 0 0 0 0 0 0 0 0 0 0 0 0 0 
0 0 0 0 0 0 0 0 0 0 0 0 0 0 0 0 0 0 0 0 0 16 75 195 
19 91 237 19 89 232 19 89 232 19 89 232 19 89 232 19 89 232 19 89 232 19 89 232 
19 89 232 19 89 232 19 89 232 19 89 232 19 89 232 19 89 232 19 89 232 19 89 232 
19 89 232 19 89 232 19 89 232 19 89 232 19 89 232 19 89 232 19 89 232 19 89 232 
19 89 232 19 89 232 19 89 232 19 89 232 19 89 232 19 89 232 19 89 232 19 90 235 
16 74 193 3 13 35 0 0 0 0 0 0 0 0 0 0 0 0 0 0 0 0 0 0 
0 0 0 0 0 0 0 0 0 0 0 0 0 0 0 0 0 0 0 0 0 0 0 0 
0 0 0 0 0 0 0 0 0 0 0 0 0 0 0 0 0 0 0 0 0 0 0 0 

0 0 0 0 0 0 0 0 0 0 0 0 0 0 0 0 0 0 0 0 0 0 0 0 
0 0 0 0 0 0 0 0 0 0 0 0 0 0 0 0 0 0 0 0 0 0 0 0 
0 0 0 0 0 0 0 0 0 0 0 0 0 0 0 0 0 0 0 0 1 0 0 0 
5 24 63 14 65 169 20 93 241 19 90 235 19 89 232 19 89 232 19 89 232 19 89 232 
19 89 232 19 89 232 19 89 232 19 89 232 19 89 232 19 89 232 19 89 232 19 89 232 
19 89 232 19 89 232 19 89 232 19 89 232 19 89 232 19 89 232 19 89 232 19 89 232 
19 89 232 19 89 232 19 89 232 19 89 232 19 90 233 20 94 244 17 78 203 8 37 96 
0 0 0 0 0 0 0 0 0 0 0 0 0 0 0 0 0 0 0 0 0 0 0 0 
0 0 0 0 0 0 0 0 0 0 0 0 0 0 0 0 0 0 0 0 0 0 0 0 
0 0 0 0 0 0 0 0 0 0 0 0 0 0 0 0 0 0 0 0 0 0 0 0 

0 0 0 0 0 0 0 0 0 0 0 0 0 0 0 0 0 0 0 0 0 0 0 0 
0 0 0 0 0 0 0 0 0 0 0 0 0 0 0 0 0 0 0 0 0 0 0 0 
0 0 0 0 0 0 0 0 0 0 0 0 0 0 0 0 0 0 0 0 0 0 0 0 
0 0 0 0 0 0 4 16 41 14 63 164 19 87 226 19 89 232 19 89 232 19 89 232 
19 89 232 19 89 232 19 89 232 19 89 232 19 89 232 19 89 232 19 89 232 19 89 232 
19 89 232 19 89 232 19 89 232 19 89 232 19 89 232 19 89 232 19 89 232 19 89 232 
19 89 232 19 89 232 19 89 233 19 87 226 16 76 198 3 15 39 0 0 0 0 0 0 
0 0 0 0 0 0 0 0 0 0 0 0 0 0 0 0 0 0 0 0 0 0 0 0 
0 0 0 0 0 0 0 0 0 0 0 0 0 0 0 0 0 0 0 0 0 0 0 0 
0 0 0 0 0 0 0 0 0 0 0 0 0 0 0 0 0 0 0 0 0 0 0 0 

0 0 0 0 0 0 0 0 0 0 0 0 0 0 0 0 0 0 0 0 0 0 0 0 
0 0 0 0 0 0 0 0 0 0 0 0 0 0 0 0 0 0 0 0 0 0 0 0 
0 0 0 0 0 0 0 0 0 0 0 0 0 0 0 0 0 0 0 0 0 0 0 0 
0 0 0 0 0 0 0 0 0 0 0 0 2 11 28 7 33 88 14 65 169 20 95 246 
20 93 243 19 90 236 19 89 232 19 89 232 19 89 232 19 89 232 19 89 232 19 89 232 
19 89 232 19 89 232 19 89 232 19 89 232 19 89 232 19 89 232 19 89 232 20 92 241 
20 95 247 14 64 165 11 51 131 2 11 29 0 0 1 0 0 0 0 0 0 0 0 0 
0 0 0 0 0 0 0 0 0 0 0 0 0 0 0 0 0 0 0 0 0 0 0 0 
0 0 0 0 0 0 0 0 0 0 0 0 0 0 0 0 0 0 0 0 0 0 0 0 
0 0 0 0 0 0 0 0 0 0 0 0 0 0 0 0 0 0 0 0 0 0 0 0 

0 0 0 0 0 0 0 0 0 0 0 0 0 0 0 0 0 0 0 0 0 0 0 0 
0 0 0 0 0 0 0 0 0 0 0 0 0 0 0 0 0 0 0 0 0 0 0 0 
0 0 0 0 0 0 0 0 0 0 0 0 0 0 0 0 0 0 0 0 0 0 0 0 
0 0 0 0 0 0 0 0 0 0 0 0 0 0 0 0 0 0 0 0 0 0 0 0 
5 21 54 10 50 130 14 66 171 17 80 208 17 79 206 17 79 206 17 79 206 17 79 206 
17 79 206 17 79 206 17 79 206 17 79 206 17 80 207 15 70 183 14 67 176 7 30 78 
0 0 0 0 0 0 0 0 0 0 0 0 0 0 0 0 0 0 0 0 0 0 0 0 
0 0 0 0 0 0 0 0 0 0 0 0 0 0 0 0 0 0 0 0 0 0 0 0 
0 0 0 0 0 0 0 0 0 0 0 0 0 0 0 0 0 0 0 0 0 0 0 0 
0 0 0 0 0 0 0 0 0 0 0 0 0 0 0 0 0 0 0 0 0 0 0 0 

0 0 0 0 0 0 0 0 0 0 0 0 0 0 0 0 0 0 0 0 0 0 0 0 
0 0 0 0 0 0 0 0 0 0 0 0 0 0 0 0 0 0 0 0 0 0 0 0 
0 0 0 0 0 0 0 0 0 0 0 0 0 0 0 0 0 0 0 0 0 0 0 0 
0 0 0 0 0 0 0 0 0 0 0 0 0 0 0 0 0 0 0 0 0 0 0 0 
0 0 0 0 0 0 0 0 0 1 3 7 1 3 7 1 3 7 1 3 7 1 3 7 
1 3 7 1 3 7 1 3 7 1 3 7 1 3 7 0 1 2 0 0 0 0 0 0 
0 0 0 0 0 0 0 0 0 0 0 0 0 0 0 0 0 0 0 0 0 0 0 0 
0 0 0 0 0 0 0 0 0 0 0 0 0 0 0 0 0 0 0 0 0 0 0 0 
0 0 0 0 0 0 0 0 0 0 0 0 0 0 0 0 0 0 0 0 0 0 0 0 
0 0 0 0 0 0 0 0 0 0 0 0 0 0 0 0 0 0 0 0 0 0 0 0 

0 0 0 0 0 0 0 0 0 0 0 0 0 0 0 0 0 0 0 0 0 0 0 0 
0 0 0 0 0 0 0 0 0 0 0 0 0 0 0 0 0 0 0 0 0 0 0 0 
0 0 0 0 0 0 0 0 0 0 0 0 0 0 0 0 0 0 0 0 0 0 0 0 
0 0 0 0 0 0 0 0 0 0 0 0 0 0 0 0 0 0 0 0 0 0 0 0 
0 0 0 0 0 0 0 0 0 0 0 0 0 0 0 0 0 0 0 0 0 0 0 0 
0 0 0 0 0 0 0 0 0 0 0 0 0 0 0 0 0 0 0 0 0 0 0 0 
0 0 0 0 0 0 0 0 0 0 0 0 0 0 0 0 0 0 0 0 0 0 0 0 
0 0 0 0 0 0 0 0 0 0 0 0 0 0 0 0 0 0 0 0 0 0 0 0 
0 0 0 0 0 0 0 0 0 0 0 0 0 0 0 0 0 0 0 0 0 0 0 0 
0 0 0 0 0 0 0 0 0 0 0 0 0 0 0 0 0 0 0 0 0 0 0 0 

0 0 0 0 0 0 0 0 0 0 0 0 0 0 0 0 0 0 0 0 0 0 0 0 
0 0 0 0 0 0 0 0 0 0 0 0 0 0 0 0 0 0 0 0 0 0 0 0 
0 0 0 0 0 0 0 0 0 0 0 0 0 0 0 0 0 0 0 0 0 0 0 0 
0 0 0 0 0 0 0 0 0 0 0 0 0 0 0 0 0 0 0 0 0 0 0 0 
0 0 0 0 0 0 0 0 0 0 0 0 0 0 0 0 0 0 0 0 0 0 0 0 
0 0 0 0 0 0 0 0 0 0 0 0 0 0 0 0 0 0 0 0 0 0 0 0 
0 0 0 0 0 0 0 0 0 0 0 0 0 0 0 0 0 0 0 0 0 0 0 0 
0 0 0 0 0 0 0 0 0 0 0 0 0 0 0 0 0 0 0 0 0 0 0 0 
0 0 0 0 0 0 0 0 0 0 0 0 0 0 0 0 0 0 0 0 0 0 0 0 
0 0 0 0 0 0 0 0 0 0 0 0 0 0 0 0 0 0 0 0 0 0 0 0 

0 0 0 0 0 0 0 0 0 0 0 0 0 0 0 0 0 0 0 0 0 0 0 0 
0 0 0 0 0 0 0 0 0 0 0 0 0 0 0 0 0 0 0 0 0 0 0 0 
0 0 0 0 0 0 0 0 0 0 0 0 0 0 0 0 0 0 0 0 0 0 0 0 
0 0 0 0 0 0 0 0 0 0 0 0 0 0 0 0 0 0 0 0 0 0 0 0 
0 0 0 0 0 0 0 0 0 0 0 0 0 0 0 0 0 0 0 0 0 0 0 0 
0 0 0 0 0 0 0 0 0 0 0 0 0 0 0 0 0 0 0 0 0 0 0 0 
0 0 0 0 0 0 0 0 0 0 0 0 0 0 0 0 0 0 0 0 0 0 0 0 
0 0 0 0 0 0 0 0 0 0 0 0 0 0 0 0 0 0 0 0 0 0 0 0 
0 0 0 0 0 0 0 0 0 0 0 0 0 0 0 0 0 0 0 0 0 0 0 0 
0 0 0 0 0 0 0 0 0 0 0 0 0 0 0 0 0 0 0 0 0 0 0 0 

